# xmcd CD database file
#
# Track frame offsets:
#	183
#	14180
#	32760
#	47638
#	68598
#	90380
#	113600
#	130715
#	151763
#	168833
#	188115
#	208885
#	223435
#	250150
#	261668
#	279818
#
# Disc length: 4015 seconds
#
# Revision: 0
# Processed by: cddbd v1.5.2PL0 Copyright (c) Steve Scherf et al.
# Submitted via: CDex 1.70beta1
#
DISCID=e10fad10
DTITLE=Pete Allen - Beau Sejour
DYEAR=1900
DGENRE=Jazz
TTITLE0=Seagull Strut
TTITLE1=Body And Soul
TTITLE2=I'm Gonna Sit Right Down And Write A Letter
TTITLE3=That's All
TTITLE4=Swanee River 
TTITLE5=Two Sleepy People
TTITLE6=Cheek To Cheek
TTITLE7=Old Rugged Cross
TTITLE8=RosesOf Picardy
TTITLE9=Isle De France
TTITLE10=Mystic Gypsy
TTITLE11=Sunnyside Of The Street
TTITLE12=Shadow Of Your Smile
TTITLE13=Elephant Stomp
TTITLE14=Beau Sejour
TTITLE15=St Phipips Street Breakdown
EXTD=
EXTT0=
EXTT1=
EXTT2=
EXTT3=
EXTT4=
EXTT5=
EXTT6=
EXTT7=
EXTT8=
EXTT9=
EXTT10=
EXTT11=
EXTT12=
EXTT13=
EXTT14=
EXTT15=
PLAYORDER=
